<mxfile host="app.diagrams.net" agent="Mozilla/5.0 (Macintosh; Intel Mac OS X 10_15_7) AppleWebKit/537.36 (KHTML, like Gecko) Chrome/128.0.0.0 Safari/537.36" version="24.7.10">
  <diagram name="第 1 页" id="Vk1wsm3dNOzczMqp0urp">
    <mxGraphModel dx="1026" dy="650" grid="1" gridSize="10" guides="1" tooltips="1" connect="1" arrows="1" fold="1" page="1" pageScale="1" pageWidth="827" pageHeight="1169" math="0" shadow="0">
      <root>
        <mxCell id="0" />
        <mxCell id="1" parent="0" />
        <mxCell id="chlHGXJJEHLnhbNiG8eY-3" value="" style="edgeStyle=orthogonalEdgeStyle;rounded=0;orthogonalLoop=1;jettySize=auto;html=1;" edge="1" parent="1" source="chlHGXJJEHLnhbNiG8eY-1" target="chlHGXJJEHLnhbNiG8eY-4">
          <mxGeometry relative="1" as="geometry">
            <mxPoint x="400" y="270" as="targetPoint" />
          </mxGeometry>
        </mxCell>
        <mxCell id="chlHGXJJEHLnhbNiG8eY-1" value="定时触发" style="rounded=1;whiteSpace=wrap;html=1;" vertex="1" parent="1">
          <mxGeometry x="340" y="130" width="120" height="60" as="geometry" />
        </mxCell>
        <mxCell id="chlHGXJJEHLnhbNiG8eY-6" value="" style="edgeStyle=orthogonalEdgeStyle;rounded=0;orthogonalLoop=1;jettySize=auto;html=1;" edge="1" parent="1" source="chlHGXJJEHLnhbNiG8eY-4" target="chlHGXJJEHLnhbNiG8eY-5">
          <mxGeometry relative="1" as="geometry" />
        </mxCell>
        <mxCell id="chlHGXJJEHLnhbNiG8eY-4" value="PAI平台查询所有服务并遍历" style="shape=process;whiteSpace=wrap;html=1;backgroundOutline=1;" vertex="1" parent="1">
          <mxGeometry x="340" y="240" width="120" height="60" as="geometry" />
        </mxCell>
        <mxCell id="chlHGXJJEHLnhbNiG8eY-8" value="" style="edgeStyle=orthogonalEdgeStyle;rounded=0;orthogonalLoop=1;jettySize=auto;html=1;" edge="1" parent="1" source="chlHGXJJEHLnhbNiG8eY-5" target="chlHGXJJEHLnhbNiG8eY-7">
          <mxGeometry relative="1" as="geometry" />
        </mxCell>
        <mxCell id="chlHGXJJEHLnhbNiG8eY-9" value="否" style="edgeLabel;html=1;align=center;verticalAlign=middle;resizable=0;points=[];" vertex="1" connectable="0" parent="chlHGXJJEHLnhbNiG8eY-8">
          <mxGeometry x="-0.1048" y="4" relative="1" as="geometry">
            <mxPoint as="offset" />
          </mxGeometry>
        </mxCell>
        <mxCell id="chlHGXJJEHLnhbNiG8eY-11" value="" style="edgeStyle=orthogonalEdgeStyle;rounded=0;orthogonalLoop=1;jettySize=auto;html=1;" edge="1" parent="1" source="chlHGXJJEHLnhbNiG8eY-5" target="chlHGXJJEHLnhbNiG8eY-10">
          <mxGeometry relative="1" as="geometry" />
        </mxCell>
        <mxCell id="chlHGXJJEHLnhbNiG8eY-5" value="判断服务服务是否是终态" style="rhombus;whiteSpace=wrap;html=1;" vertex="1" parent="1">
          <mxGeometry x="315" y="350" width="170" height="70" as="geometry" />
        </mxCell>
        <mxCell id="chlHGXJJEHLnhbNiG8eY-7" value="跳过" style="rounded=1;whiteSpace=wrap;html=1;" vertex="1" parent="1">
          <mxGeometry x="130" y="367.5" width="80" height="35" as="geometry" />
        </mxCell>
        <mxCell id="chlHGXJJEHLnhbNiG8eY-13" value="" style="edgeStyle=orthogonalEdgeStyle;rounded=0;orthogonalLoop=1;jettySize=auto;html=1;" edge="1" parent="1" source="chlHGXJJEHLnhbNiG8eY-10" target="chlHGXJJEHLnhbNiG8eY-12">
          <mxGeometry relative="1" as="geometry" />
        </mxCell>
        <mxCell id="chlHGXJJEHLnhbNiG8eY-10" value="获取服务对应数据库&lt;div&gt;所有版本记录&lt;/div&gt;" style="shape=dataStorage;whiteSpace=wrap;html=1;fixedSize=1;" vertex="1" parent="1">
          <mxGeometry x="325" y="470" width="150" height="50" as="geometry" />
        </mxCell>
        <mxCell id="chlHGXJJEHLnhbNiG8eY-15" value="" style="edgeStyle=orthogonalEdgeStyle;rounded=0;orthogonalLoop=1;jettySize=auto;html=1;" edge="1" parent="1" source="chlHGXJJEHLnhbNiG8eY-12" target="chlHGXJJEHLnhbNiG8eY-17">
          <mxGeometry relative="1" as="geometry">
            <mxPoint x="290" y="762.5" as="targetPoint" />
          </mxGeometry>
        </mxCell>
        <mxCell id="chlHGXJJEHLnhbNiG8eY-16" value="历史版本" style="edgeLabel;html=1;align=center;verticalAlign=middle;resizable=0;points=[];" vertex="1" connectable="0" parent="chlHGXJJEHLnhbNiG8eY-15">
          <mxGeometry x="0.0696" y="2" relative="1" as="geometry">
            <mxPoint as="offset" />
          </mxGeometry>
        </mxCell>
        <mxCell id="chlHGXJJEHLnhbNiG8eY-26" value="" style="edgeStyle=orthogonalEdgeStyle;rounded=0;orthogonalLoop=1;jettySize=auto;html=1;" edge="1" parent="1" source="chlHGXJJEHLnhbNiG8eY-12" target="chlHGXJJEHLnhbNiG8eY-25">
          <mxGeometry relative="1" as="geometry" />
        </mxCell>
        <mxCell id="chlHGXJJEHLnhbNiG8eY-27" value="正运行版本" style="edgeLabel;html=1;align=center;verticalAlign=middle;resizable=0;points=[];" vertex="1" connectable="0" parent="chlHGXJJEHLnhbNiG8eY-26">
          <mxGeometry x="-0.1488" relative="1" as="geometry">
            <mxPoint y="1" as="offset" />
          </mxGeometry>
        </mxCell>
        <mxCell id="chlHGXJJEHLnhbNiG8eY-12" value="遍历数据库版本号，根据Pai平台&lt;div&gt;判断对应版本是否是正运行&lt;/div&gt;" style="rhombus;whiteSpace=wrap;html=1;" vertex="1" parent="1">
          <mxGeometry x="295" y="585" width="210" height="90" as="geometry" />
        </mxCell>
        <mxCell id="chlHGXJJEHLnhbNiG8eY-19" value="" style="edgeStyle=orthogonalEdgeStyle;rounded=0;orthogonalLoop=1;jettySize=auto;html=1;" edge="1" parent="1" source="chlHGXJJEHLnhbNiG8eY-17" target="chlHGXJJEHLnhbNiG8eY-18">
          <mxGeometry relative="1" as="geometry" />
        </mxCell>
        <mxCell id="chlHGXJJEHLnhbNiG8eY-20" value="是" style="edgeLabel;html=1;align=center;verticalAlign=middle;resizable=0;points=[];" vertex="1" connectable="0" parent="chlHGXJJEHLnhbNiG8eY-19">
          <mxGeometry x="-0.0737" y="1" relative="1" as="geometry">
            <mxPoint as="offset" />
          </mxGeometry>
        </mxCell>
        <mxCell id="chlHGXJJEHLnhbNiG8eY-24" value="" style="edgeStyle=orthogonalEdgeStyle;rounded=0;orthogonalLoop=1;jettySize=auto;html=1;" edge="1" parent="1" source="chlHGXJJEHLnhbNiG8eY-17" target="chlHGXJJEHLnhbNiG8eY-23">
          <mxGeometry relative="1" as="geometry" />
        </mxCell>
        <mxCell id="chlHGXJJEHLnhbNiG8eY-17" value="数据库记录&lt;div&gt;是否为历史状态&lt;/div&gt;" style="rhombus;whiteSpace=wrap;html=1;" vertex="1" parent="1">
          <mxGeometry x="180" y="770" width="150" height="60" as="geometry" />
        </mxCell>
        <mxCell id="chlHGXJJEHLnhbNiG8eY-18" value="跳过" style="whiteSpace=wrap;html=1;" vertex="1" parent="1">
          <mxGeometry x="70" y="780" width="55" height="40" as="geometry" />
        </mxCell>
        <mxCell id="chlHGXJJEHLnhbNiG8eY-36" value="" style="edgeStyle=orthogonalEdgeStyle;rounded=0;orthogonalLoop=1;jettySize=auto;html=1;" edge="1" parent="1" source="chlHGXJJEHLnhbNiG8eY-23">
          <mxGeometry relative="1" as="geometry">
            <mxPoint x="400" y="990" as="targetPoint" />
          </mxGeometry>
        </mxCell>
        <mxCell id="chlHGXJJEHLnhbNiG8eY-23" value="更改数据库状态，设为历史状态" style="rounded=1;whiteSpace=wrap;html=1;" vertex="1" parent="1">
          <mxGeometry x="197.5" y="880" width="115" height="40" as="geometry" />
        </mxCell>
        <mxCell id="chlHGXJJEHLnhbNiG8eY-29" value="" style="edgeStyle=orthogonalEdgeStyle;rounded=0;orthogonalLoop=1;jettySize=auto;html=1;" edge="1" parent="1" source="chlHGXJJEHLnhbNiG8eY-25" target="chlHGXJJEHLnhbNiG8eY-28">
          <mxGeometry relative="1" as="geometry" />
        </mxCell>
        <mxCell id="chlHGXJJEHLnhbNiG8eY-30" value="一致" style="edgeLabel;html=1;align=center;verticalAlign=middle;resizable=0;points=[];" vertex="1" connectable="0" parent="chlHGXJJEHLnhbNiG8eY-29">
          <mxGeometry x="-0.2667" y="4" relative="1" as="geometry">
            <mxPoint as="offset" />
          </mxGeometry>
        </mxCell>
        <mxCell id="chlHGXJJEHLnhbNiG8eY-34" value="" style="edgeStyle=orthogonalEdgeStyle;rounded=0;orthogonalLoop=1;jettySize=auto;html=1;" edge="1" parent="1" source="chlHGXJJEHLnhbNiG8eY-25" target="chlHGXJJEHLnhbNiG8eY-33">
          <mxGeometry relative="1" as="geometry" />
        </mxCell>
        <mxCell id="chlHGXJJEHLnhbNiG8eY-25" value="数据库记录状态&lt;div&gt;与Pai平台是否一致&lt;/div&gt;" style="rhombus;whiteSpace=wrap;html=1;" vertex="1" parent="1">
          <mxGeometry x="450" y="770" width="150" height="60" as="geometry" />
        </mxCell>
        <mxCell id="chlHGXJJEHLnhbNiG8eY-28" value="跳过" style="whiteSpace=wrap;html=1;" vertex="1" parent="1">
          <mxGeometry x="660" y="790" width="60" height="20" as="geometry" />
        </mxCell>
        <mxCell id="chlHGXJJEHLnhbNiG8eY-33" value="更改数据库记录状态为对应线上状态" style="rounded=1;whiteSpace=wrap;html=1;" vertex="1" parent="1">
          <mxGeometry x="472.5" y="880" width="105" height="50" as="geometry" />
        </mxCell>
        <mxCell id="chlHGXJJEHLnhbNiG8eY-37" value="" style="endArrow=classic;html=1;rounded=0;entryX=0.5;entryY=0;entryDx=0;entryDy=0;" edge="1" parent="1" target="chlHGXJJEHLnhbNiG8eY-38">
          <mxGeometry width="50" height="50" relative="1" as="geometry">
            <mxPoint x="470" y="900" as="sourcePoint" />
            <mxPoint x="400" y="990" as="targetPoint" />
            <Array as="points">
              <mxPoint x="400" y="900" />
            </Array>
          </mxGeometry>
        </mxCell>
        <mxCell id="chlHGXJJEHLnhbNiG8eY-40" value="" style="edgeStyle=orthogonalEdgeStyle;rounded=0;orthogonalLoop=1;jettySize=auto;html=1;" edge="1" parent="1" source="chlHGXJJEHLnhbNiG8eY-38" target="chlHGXJJEHLnhbNiG8eY-39">
          <mxGeometry relative="1" as="geometry" />
        </mxCell>
        <mxCell id="chlHGXJJEHLnhbNiG8eY-38" value="统一保存&lt;div&gt;数据库&lt;/div&gt;" style="shape=dataStorage;whiteSpace=wrap;html=1;fixedSize=1;" vertex="1" parent="1">
          <mxGeometry x="345" y="990" width="110" height="50" as="geometry" />
        </mxCell>
        <mxCell id="chlHGXJJEHLnhbNiG8eY-39" value="结束" style="whiteSpace=wrap;html=1;" vertex="1" parent="1">
          <mxGeometry x="370" y="1090" width="60" height="25" as="geometry" />
        </mxCell>
      </root>
    </mxGraphModel>
  </diagram>
</mxfile>
